<?xml version="1.0" encoding="UTF-8" standalone="no"?>
<!-- Created with Inkscape (http://www.inkscape.org/) -->

<svg
   xmlns:dc="http://purl.org/dc/elements/1.1/"
   xmlns:cc="http://creativecommons.org/ns#"
   xmlns:rdf="http://www.w3.org/1999/02/22-rdf-syntax-ns#"
   xmlns:svg="http://www.w3.org/2000/svg"
   xmlns="http://www.w3.org/2000/svg"
   xmlns:sodipodi="http://sodipodi.sourceforge.net/DTD/sodipodi-0.dtd"
   xmlns:inkscape="http://www.inkscape.org/namespaces/inkscape"
   version="1.1"
   id="svg2"
   xml:space="preserve"
   width="176.8"
   height="58.156933"
   viewBox="0 0 176.8 58.156933"
   sodipodi:docname="small.svg"
   inkscape:version="0.92.4 (5da689c313, 2019-01-14)"><metadata
     id="metadata8"><rdf:RDF><cc:Work
         rdf:about=""><dc:format>image/svg+xml</dc:format><dc:type
           rdf:resource="http://purl.org/dc/dcmitype/StillImage" /><dc:title></dc:title></cc:Work></rdf:RDF></metadata><defs
     id="defs6"><clipPath
       clipPathUnits="userSpaceOnUse"
       id="clipPath18"><path
         d="M 0,1440 H 2560 V 0 H 0 Z"
         id="path16"
         inkscape:connector-curvature="0" /></clipPath></defs><sodipodi:namedview
     pagecolor="#ffffff"
     bordercolor="#666666"
     borderopacity="1"
     objecttolerance="10"
     gridtolerance="10"
     guidetolerance="10"
     inkscape:pageopacity="0"
     inkscape:pageshadow="2"
     inkscape:window-width="2560"
     inkscape:window-height="1377"
     id="namedview4"
     showgrid="false"
     inkscape:pagecheckerboard="true"
     fit-margin-top="0"
     fit-margin-left="0"
     fit-margin-right="0"
     fit-margin-bottom="0"
     inkscape:zoom="0.60656505"
     inkscape:cx="33.068047"
     inkscape:cy="106.72955"
     inkscape:window-x="-8"
     inkscape:window-y="-8"
     inkscape:window-maximized="1"
     inkscape:current-layer="g10" /><g
     id="g10"
     inkscape:groupmode="layer"
     inkscape:label="ENTIGO_logo_RGB"
     transform="matrix(1.3333333,0,0,-1.3333333,-1618.2668,989.07858)"><g
       id="g3731"
       transform="matrix(0.1,0,0,0.1,1152.0001,648.00009)"><g
         id="g12"><g
           clip-path="url(#clipPath18)"
           id="g14"><g
             transform="translate(1315.4021,858.1836)"
             id="g20"><path
               inkscape:connector-curvature="0"
               id="path22"
               style="fill:#ffffff;fill-opacity:1;fill-rule:nonzero;stroke:none"
               d="m 0,0 v 79.905 h 80.487 z m 388.164,-179.211 v 80.571 c 0,57.191 43.307,96.976 120.225,96.976 38.208,0 67.249,-8.951 88.134,-27.353 20.886,-17.903 31.075,-41.274 31.075,-69.623 v -80.571 c 0,-57.694 -43.302,-97.48 -119.209,-97.48 -77.432,0 -120.225,39.786 -120.225,97.48 m 158.941,2.489 v 74.099 c 0,17.411 -13.752,30.341 -38.716,30.341 -26.488,0 -39.738,-12.93 -39.738,-30.341 v -74.099 c 0,-16.415 13.25,-29.344 39.738,-29.344 24.964,0 38.716,12.929 38.716,29.344 M 356.082,-7.629 v -246.185 c 0,-66.148 -46.357,-102.458 -118.186,-102.458 -72.846,0 -114.11,33.328 -114.11,89.025 h 79.979 c 0,-12.426 11.206,-18.396 33.622,-18.396 25.472,0 38.208,10.44 38.208,31.829 v 22.877 c -17.322,-11.436 -38.208,-17.406 -63.171,-17.406 -27.002,0 -49.927,7.957 -68.266,23.874 -18.338,16.409 -27.51,40.283 -27.51,72.117 v 54.707 c 0,63.658 41.263,95.985 96.289,95.985 29.036,0 55.016,-9.947 77.941,-29.842 l 23.894,23.873 z M 275.595,-156.34 v 63.166 c -14.775,13.93 -30.566,20.896 -46.358,20.896 -14.266,0 -32.096,-11.447 -32.096,-31.342 v -41.772 c 0,-20.393 17.83,-32.332 32.096,-32.332 15.792,0 31.075,6.966 46.358,21.384 M 0,-7.628 H 80.488 V -270.726 H 0 Z m -57.054,-263.095 c -70.807,0 -105.959,35.309 -105.959,106.431 V -75.13 -7.484 79.901 H -82.52 V -7.484 h 74.56 l -74.56,-72.799 v -82.516 c 0,-31.336 11.205,-40.288 35.152,-40.288 h 21.902 v -67.636 z m -375.946,0 V -7.625 h 41.221 l 23.989,-23.874 c 22.411,19.891 48.391,29.838 77.432,29.838 59.602,0 94.24,-39.292 94.24,-103.448 v -165.614 h -80.487 v 161.636 c 0,23.872 -13.245,36.802 -32.092,36.802 -16.813,0 -31.079,-6.96 -43.815,-20.89 v -177.548 z m -265.402,90.516 v 81.568 c 0,60.173 48.396,96.975 120.225,96.975 67.752,0 114.115,-34.313 114.115,-95.985 v -67.637 h -153.853 v -14.422 c 0,-17.407 13.25,-26.358 39.738,-26.358 17.831,0 29.036,4.968 33.622,15.414 h 79.979 c -4.58,-54.209 -46.866,-86.038 -113.601,-86.038 -72.846,0 -120.225,34.318 -120.225,96.483 m 80.487,71.122 h 73.36 v 13.925 c 0,16.908 -12.227,25.367 -36.677,25.367 -24.455,0 -36.683,-8.459 -36.683,-25.367 z" /></g></g></g></g></g></svg>